<svg width="459" height="131" viewBox="0 0 918 261" xmlns="http://www.w3.org/2000/svg">
    <style>
      .logo-dropmic {
        fill: #000;
      }
      @media (prefers-color-scheme: dark) {
        .logo-dropmic {
          fill: #fff;
        }
      }
    </style>
  <g stroke="none" stroke-width="1" fill="none" fill-rule="evenodd">
    <g class="logo-dropmic">
      <path d="M103.931 230l5.115-52.709-29.083-53.322 30.861-26.913 37.011 10.284-6.092 21.953-24.034-5.324-6.885 5.324 23.472 22.584 5.052 17.968-8.074 13.556 10.469-13.556-5.076-21.168 27.297 32.338-3.534 4.872L155.945 230h-52.014zm14.855-133.013l19.626-17.492 16.751 12.54-13.618 10.963-22.759-6.01zm44.146-8.212l17.46 17.533-45.216 37.264-14.24-9.752 3.516-5.828 19.181 4.515 7.494-26.774-7.128-1.661 18.933-15.297zm14.607 23.84l7.33 14.995-37.298 26.063-8.298-9.754 38.266-31.304zm5.167 19.519l8.617 12.305-31.522 22.1-10.945-10.242 33.85-24.163zm3.076 19.472L194 162.93l-1.374 1.214v3.902l-13.787 12.115-4.15-.16-1.347 1.19-14.298-10.38 26.738-19.205zM133.069 70.82l-49.202 40.81c-18.673-11.315-27.85-17.077-27.531-17.287.319-.21 21.92-17.464 64.806-51.76L133.07 70.82zM57.205 89.798L47 63.738 90.424 31l23.735 13.654-56.954 45.144zm69.038-9.04l2.88 3.844-11.97 9.428-5.67-1.143 14.76-12.129z" id="Picto"/>
      <path d="M332.66 47.7v134.64h-33.15v-9.52c-3.513 3.06-7.933 5.553-13.26 7.48-5.327 1.927-10.71 2.89-16.15 2.89-6.687 0-12.92-2.125-18.7-6.375-5.78-4.25-10.37-10.002-13.77-17.255-3.4-7.253-5.1-15.073-5.1-23.46 0-7.707 1.757-15.13 5.27-22.27 3.513-7.14 8.132-12.948 13.855-17.425 5.723-4.477 11.702-6.772 17.935-6.885 11.9-.34 21.703 2.38 29.41 8.16l-.34-52.7 34 2.72zm-43.01 103.955c2.833-1.757 5.128-4.08 6.885-6.97 1.757-2.89 2.635-5.865 2.635-8.925 0-4.76-1.842-8.925-5.525-12.495-3.683-3.57-7.962-5.355-12.835-5.355-4.647 0-8.755 1.785-12.325 5.355-3.57 3.57-5.355 7.792-5.355 12.665 0 3.06.822 6.007 2.465 8.84a19.775 19.775 0 006.63 6.885c2.777 1.757 5.638 2.635 8.585 2.635 3.06 0 6.007-.878 8.84-2.635zm114.92-58.14c3.853 1.983 7.253 4.788 10.2 8.415l-11.73 26.35c-3.287-4.533-7.763-6.8-13.43-6.8-6.12 0-10.682 2.182-13.685 6.545-3.003 4.363-4.732 11.475-5.185 21.335V182h-31.62V91.39h31.62v7.82c3.06-2.72 6.545-4.845 10.455-6.375 3.91-1.53 7.792-2.295 11.645-2.295 3.967 0 7.877.992 11.73 2.975zm29.58 82.535c-7.367-4.42-13.175-10.342-17.425-17.765s-6.375-15.328-6.375-23.715c0-9.293 2.408-17.34 7.225-24.14 4.817-6.8 10.88-11.957 18.19-15.47 7.31-3.513 14.705-5.27 22.185-5.27 9.747 0 18.247 1.842 25.5 5.525 7.253 3.683 12.863 8.925 16.83 15.725 3.967 6.8 5.95 14.733 5.95 23.8 0 8.953-2.097 17.085-6.29 24.395-4.193 7.31-9.945 13.062-17.255 17.255-7.31 4.193-15.385 6.29-24.225 6.29-8.84 0-16.943-2.21-24.31-6.63zm37.145-26.86c3.117-3.06 4.675-7.253 4.675-12.58 0-5.1-1.473-9.407-4.42-12.92s-7.31-5.27-13.09-5.27c-5.1 0-9.322 1.7-12.665 5.1-3.343 3.4-5.015 7.593-5.015 12.58 0 5.1 1.757 9.322 5.27 12.665s7.99 5.015 13.43 5.015c4.76 0 8.698-1.53 11.815-4.59zm121.635-47.005c6.233 7.99 9.35 18.162 9.35 30.515 0 8.727-1.615 16.745-4.845 24.055-3.23 7.31-7.792 13.09-13.685 17.34-5.893 4.25-12.75 6.375-20.57 6.375-8.387 0-15.357-1.53-20.91-4.59l1.53 46.75h-33.66V91.22l27.71.17 1.19 9.01c3.967-3.287 8.613-5.95 13.94-7.99s10.2-3.003 14.62-2.89c10.653.453 19.097 4.675 25.33 12.665zm-22.185 46.155c2.777-2.947 4.165-6.97 4.165-12.07 0-5.327-1.53-9.605-4.59-12.835-3.06-3.23-7.083-4.845-12.07-4.845-4.873 0-8.925 1.53-12.155 4.59-3.23 3.06-4.845 6.913-4.845 11.56 0 4.873 1.842 9.095 5.525 12.665 3.683 3.57 8.018 5.355 13.005 5.355 4.533 0 8.188-1.473 10.965-4.42zM743.89 182h-32.98l-.17-47.26c0-6.233-.708-10.54-2.125-12.92-1.417-2.38-3.995-3.57-7.735-3.57-2.833 0-5.128 1.728-6.885 5.185-1.757 3.457-2.635 7.848-2.635 13.175l.17 3.23-.17-.51v42.16l-31.96.34-.34-47.09c0-5.213-.963-9.265-2.89-12.155-1.927-2.89-4.647-4.335-8.16-4.335-3.627 0-6.403 1.53-8.33 4.59-1.927 3.06-2.89 7.423-2.89 13.09l.17 3.57-.17-.34 1.36 43.01h-31.96V92.58l29.24-1.02.17 6.8c2.947-2.267 6.545-4.023 10.795-5.27 4.25-1.247 8.868-1.87 13.855-1.87 10.427 0 18.303 2.663 23.63 7.99 2.833-3.173 6.573-5.44 11.22-6.8 4.647-1.36 10.71-2.04 18.19-2.04 10.54 0 18.218 4.165 23.035 12.495 4.817 8.33 7.282 21.788 7.395 40.375l.17 38.76zm12.325-99.705c-3.117-1.757-5.667-4.165-7.65-7.225-1.983-3.06-2.975-6.347-2.975-9.86 0-5.44 2.068-9.973 6.205-13.6 4.137-3.627 9.095-5.44 14.875-5.44 5.44 0 9.832 1.643 13.175 4.93s5.015 7.65 5.015 13.09c0 6.007-1.813 10.965-5.44 14.875-3.627 3.91-8.16 5.865-13.6 5.865-3.287 0-6.488-.878-9.605-2.635zm-8.925 9.095h35.53v90.1h-32.81l-2.72-90.1zm63.92 85.255c-7.14-4.363-12.807-10.2-17-17.51-4.193-7.31-6.29-15.158-6.29-23.545 0-8.387 2.012-16.065 6.035-23.035 4.023-6.97 9.463-12.495 16.32-16.575 6.857-4.08 14.422-6.12 22.695-6.12 7.367 0 14.592 1.7 21.675 5.1 7.083 3.4 12.835 7.99 17.255 13.77 4.42 5.78 6.63 12.013 6.63 18.7l-28.56 2.55c-1.02-3.287-2.862-5.922-5.525-7.905-2.663-1.983-5.638-2.975-8.925-2.975-4.533 0-8.585 1.672-12.155 5.015-3.57 3.343-5.355 7.168-5.355 11.475 0 2.833.85 5.61 2.55 8.33 1.7 2.72 3.938 4.93 6.715 6.63 2.777 1.7 5.638 2.55 8.585 2.55 2.947 0 5.752-.85 8.415-2.55 2.663-1.7 4.562-3.853 5.695-6.46l28.22 2.72c0 6.233-2.125 12.155-6.375 17.765-4.25 5.61-9.775 10.115-16.575 13.515-6.8 3.4-13.77 5.1-20.91 5.1-8.273 0-15.98-2.182-23.12-6.545z" id="Typo"/>
    </g>
  </g>
</svg>
